<?xml version="1.0" standalone="no"?>
<!DOCTYPE svg PUBLIC "-//W3C//DTD SVG 20010904//EN"
 "http://www.w3.org/TR/2001/REC-SVG-20010904/DTD/svg10.dtd">
<svg version="1.0" xmlns="http://www.w3.org/2000/svg"
 width="512.000000pt" height="512.000000pt" viewBox="0 0 512.000000 512.000000"
 preserveAspectRatio="xMidYMid meet">

<g transform="translate(0.000000,512.000000) scale(0.100000,-0.100000)"
fill="#000000" stroke="none">
<path d="M2075 5104 c-92 -20 -195 -64 -270 -114 -59 -39 -195 -166 -195 -182
0 -4 -265 -8 -590 -8 -390 0 -607 -4 -642 -11 -126 -26 -261 -125 -320 -235
-54 -100 -71 -231 -43 -337 42 -163 161 -290 316 -338 57 -18 100 -19 663 -19
l602 0 48 -55 c98 -114 250 -206 402 -245 88 -23 252 -28 342 -10 157 30 304
110 424 232 l76 78 920 0 c875 0 923 1 981 19 155 48 274 175 316 338 66 252
-103 518 -363 572 -36 8 -335 11 -956 11 l-903 0 -89 88 c-105 102 -184 151
-314 193 -119 39 -291 48 -405 23z"/>
<path d="M3354 3335 c-150 -33 -303 -121 -411 -239 l-60 -66 -1235 0 c-1343 0
-1285 2 -1400 -56 -64 -33 -154 -122 -190 -190 -145 -271 0 -601 299 -679 49
-13 230 -15 1293 -15 l1235 0 48 -55 c91 -103 203 -177 349 -227 89 -31 100
-33 243 -33 143 0 154 2 245 33 131 46 220 101 318 199 l83 83 268 0 c291 0
339 6 435 58 74 39 157 126 195 203 132 269 -15 588 -306 664 -44 12 -120 15
-325 15 l-269 0 -62 66 c-113 121 -262 207 -416 240 -82 17 -256 17 -337 -1z"/>
<path d="M1507 1579 c-189 -21 -364 -111 -494 -254 l-60 -65 -281 0 c-247 0
-287 -2 -341 -19 -280 -87 -413 -415 -273 -675 61 -113 198 -212 326 -235 33
-6 176 -11 317 -11 l258 0 38 -46 c88 -105 259 -212 398 -249 94 -25 246 -30
341 -12 168 32 300 102 422 224 l83 83 1218 0 c831 0 1236 3 1277 11 260 47
435 318 369 572 -42 163 -161 290 -316 338 -58 18 -112 19 -1304 19 l-1243 0
-48 55 c-160 188 -434 293 -687 264z"/>
</g>
</svg>
