<?xml version="1.0" standalone="no"?>
<!DOCTYPE svg PUBLIC "-//W3C//DTD SVG 20010904//EN"
 "http://www.w3.org/TR/2001/REC-SVG-20010904/DTD/svg10.dtd">
<svg version="1.0" xmlns="http://www.w3.org/2000/svg"
 width="512.000000pt" height="512.000000pt" viewBox="0 0 512.000000 512.000000"
 preserveAspectRatio="xMidYMid meet">

<g transform="translate(0.000000,512.000000) scale(0.100000,-0.100000)"
fill="#000000" stroke="none">
<path d="M2227 5109 c-110 -27 -209 -109 -260 -217 -30 -64 -32 -74 -35 -209
l-4 -141 -86 -33 c-48 -17 -120 -47 -161 -66 l-74 -33 -91 88 c-59 57 -112 99
-151 118 -55 27 -68 29 -170 29 -165 0 -179 -9 -445 -275 -266 -266 -275 -280
-275 -445 0 -102 2 -115 29 -170 19 -39 61 -92 118 -151 l88 -91 -44 -99 c-24
-54 -53 -127 -66 -161 l-22 -61 -142 -4 c-134 -3 -144 -5 -208 -35 -85 -40
-151 -106 -191 -191 l-32 -67 0 -335 0 -335 32 -67 c40 -85 106 -151 191 -191
64 -30 74 -32 209 -35 l141 -4 33 -86 c17 -48 47 -120 66 -161 l33 -74 -88
-91 c-57 -59 -99 -112 -118 -151 -27 -55 -29 -68 -29 -170 0 -165 9 -180 270
-441 264 -266 285 -279 450 -279 102 0 115 2 170 29 39 19 92 61 151 118 l91
88 99 -43 c54 -24 127 -54 161 -66 l61 -23 4 -141 c3 -135 5 -145 35 -209 40
-85 106 -151 191 -191 l67 -32 335 0 335 0 67 32 c85 40 151 106 191 191 30
64 32 74 35 209 l4 141 61 23 c34 12 107 42 161 66 l99 43 91 -88 c59 -57 112
-99 151 -118 55 -27 68 -29 170 -29 164 0 179 9 441 270 266 264 279 285 279
450 0 102 -2 115 -29 170 -19 39 -61 92 -118 151 l-88 91 43 99 c24 54 54 127
66 161 l23 61 141 4 c135 3 145 5 209 35 85 40 151 106 191 191 l32 67 0 335
0 335 -27 58 c-37 79 -78 128 -141 170 -78 52 -141 67 -283 67 l-122 0 -22 63
c-13 34 -43 107 -67 161 l-43 99 88 91 c57 59 99 112 118 151 27 55 29 68 29
170 0 165 -13 186 -279 451 -261 260 -275 269 -441 269 -102 0 -115 -2 -170
-29 -39 -19 -92 -61 -151 -118 l-91 -88 -74 33 c-41 19 -113 49 -161 66 l-86
33 -4 141 c-3 135 -5 145 -35 209 -40 85 -106 151 -191 191 l-67 32 -315 2
c-173 1 -332 -3 -353 -8z m593 -1609 c336 -99 591 -358 682 -692 20 -71 23
-107 23 -248 0 -141 -3 -177 -23 -248 -92 -336 -355 -601 -688 -693 -57 -15
-118 -23 -217 -26 -150 -6 -212 2 -341 43 -303 97 -542 347 -637 669 -21 71
-24 100 -24 255 0 153 3 185 23 254 90 311 323 561 619 665 122 43 179 51 348
47 129 -3 175 -8 235 -26z"/>
</g>
</svg>
